<svg width="115" height="22" viewBox="0 0 115 22" xmlns="http://www.w3.org/2000/svg"><g fill="#FFF"><path d="M41.557 17.18c0-.4-.019-1.16-.113-1.36-.038-.08-.151-.12-.302-.14l-.151-.02c-.038-.04-.02-.14.019-.16.226.02.472.02.698.02.265 0 .435 0 .642-.02.057.04.038.12.02.16l-.152.02c-.15.02-.264.08-.302.16-.094.22-.094.96-.094 1.34v.74c0 .56-.095 1.16-.435 1.56-.264.3-.717.48-1.17.48-.435 0-.85-.08-1.152-.36-.321-.28-.472-.76-.472-1.54v-1.54c0-.68-.02-.8-.378-.82l-.151-.02c-.038-.02-.019-.14.019-.16.302.02.51.02.755.02.246 0 .453 0 .755-.02.038.02.057.14.02.16l-.152.02c-.358.04-.377.14-.377.82v1.42c0 1.06.302 1.74 1.246 1.74.887 0 1.227-.74 1.227-1.74v-.76zm8.063 1.56c0 .2 0 .98.019 1.14-.019.04-.057.08-.113.08-.076-.12-.246-.34-.793-.98l-1.436-1.72c-.17-.2-.585-.74-.717-.88h-.019c-.019.08-.038.22-.038.42v1.42c0 .3 0 1.16.114 1.36.037.08.15.12.32.12l.19.02c.037.06.037.12-.02.16-.283-.02-.49-.02-.717-.02-.264 0-.434 0-.642.02-.038-.04-.057-.12-.019-.16l.17-.02c.151-.02.246-.06.264-.14.095-.24.076-1.04.076-1.34v-1.88c0-.18 0-.32-.132-.48-.095-.1-.227-.14-.378-.16l-.094-.02c-.038-.04-.038-.14.019-.16.264.02.585.02.698.02.095 0 .208 0 .283-.02.133.34.85 1.2 1.058 1.44l.604.72c.434.5.737.86 1.02 1.18h.019c.019-.04.019-.14.019-.28v-1.4c0-.3 0-1.16-.133-1.36-.037-.06-.132-.1-.377-.14l-.114-.02c-.037-.04-.037-.14.02-.16.283.02.49.02.736.02.264 0 .434 0 .642-.02a.11.11 0 01.019.16l-.095.02c-.189.04-.32.08-.34.14-.113.24-.094 1.04-.094 1.34v1.58h-.019zm4.588-2.22c0-.7-.018-.8-.377-.84l-.151-.02c-.038-.02-.02-.14.019-.16.302.02.51.02.774.02.245 0 .453 0 .755-.02.038.02.057.14.019.16l-.151.02c-.359.04-.378.14-.378.84v2.32c0 .7.02.78.378.82l.151.02c.038.02.019.14-.019.16-.302-.02-.51-.02-.755-.02-.265 0-.472 0-.774.02-.038-.02-.057-.12-.02-.16l.152-.02c.359-.04.377-.14.377-.82v-2.32zm5.004-.3c-.132-.36-.226-.5-.49-.54l-.114-.02c-.038-.04-.038-.14.019-.16.189.02.378.02.642.02s.49 0 .755-.02c.038.02.057.12.02.16l-.095.02c-.227.04-.283.08-.283.12.018.06.113.42.302.92.283.76.566 1.5.868 2.26.189-.44.453-1.1.586-1.46.17-.44.472-1.18.566-1.46.057-.14.057-.2.057-.26 0-.04-.057-.1-.284-.12l-.113-.02c-.038-.04-.038-.14.02-.16.169.02.414.02.641.02.208 0 .397 0 .604-.02.038.02.038.14.02.16l-.19.02a.427.427 0 00-.32.22c-.17.3-.416.84-.7 1.5l-.34.8c-.245.6-.528 1.36-.641 1.7-.02.02-.038.02-.057.02-.038 0-.056 0-.094-.02-.076-.28-.17-.6-.283-.86l-1.096-2.82zm7.421.3c0-.68-.019-.78-.378-.82l-.094-.02c-.038-.02-.019-.14.019-.16.264.02.472.02.717.02h1.152c.397 0 .756 0 .831-.02.038.12.076.58.095.88-.02.04-.133.06-.151.02-.095-.3-.152-.54-.473-.62-.132-.04-.32-.04-.604-.04h-.453c-.189 0-.189.02-.189.26v1.3c0 .18.02.18.208.18h.359c.264 0 .453-.02.528-.04.076-.02.114-.06.151-.22l.057-.26c.038-.04.132-.04.151 0 0 .16-.019.42-.019.66 0 .24.02.48.02.62-.02.04-.133.04-.152 0l-.057-.26c-.018-.12-.075-.22-.188-.24a2.169 2.169 0 00-.472-.04h-.36c-.188 0-.207 0-.207.18v.92c0 .34.019.56.113.68.076.08.208.14.756.14.472 0 .66-.02.793-.1.113-.06.283-.3.434-.64.038-.04.132-.02.151.04-.038.22-.189.74-.283.9-.548-.02-1.095-.02-1.662-.02h-.547c-.265 0-.472 0-.831.02-.038-.02-.057-.12-.02-.16l.209-.02c.358-.04.377-.14.377-.82v-2.32h.02zm6.685 0c0-.62-.02-.74-.265-.76l-.189-.02c-.037-.04-.037-.14 0-.16.34-.04.775-.06 1.379-.06.377 0 .755.04 1.038.2.302.16.51.46.51.92 0 .62-.453.96-.774 1.1-.038.04 0 .1.038.16.49.84.812 1.36 1.246 1.74.113.1.264.18.434.18.038.02.038.06 0 .1a.83.83 0 01-.264.04c-.529 0-.85-.16-1.284-.82-.17-.24-.416-.7-.604-.98-.095-.14-.19-.2-.435-.2-.283 0-.283 0-.283.14v.82c0 .68.019.76.378.82l.132.02c.038.04.019.14-.019.16-.283-.02-.49-.02-.736-.02-.265 0-.491 0-.775.02-.037-.02-.056-.12-.018-.16l.15-.02c.36-.04.378-.14.378-.82v-2.4h-.037zm.51.94c0 .12 0 .18.018.22.02.02.114.04.416.04.226 0 .453-.02.642-.18.17-.14.302-.36.302-.8 0-.52-.302-1-.982-1-.378 0-.397.02-.397.2v1.52zm6.948 2.5c-.51 0-.85-.18-.963-.24-.075-.14-.151-.6-.17-.92.038-.04.132-.06.151-.02.095.34.34.98 1.058.98.51 0 .774-.36.774-.76 0-.28-.057-.6-.51-.92l-.585-.4c-.302-.22-.661-.58-.661-1.12 0-.62.453-1.12 1.265-1.12.189 0 .415.04.566.08.076.02.17.04.208.04.057.16.113.52.113.8-.019.04-.132.06-.15.02-.076-.32-.246-.74-.832-.74-.604 0-.736.42-.736.72 0 .38.302.66.529.8l.49.32c.397.26.775.64.775 1.26 0 .72-.51 1.22-1.322 1.22m5.514-3.44c0-.7-.02-.8-.378-.84l-.15-.02c-.039-.02-.02-.14.018-.16.302.02.51.02.774.02.246 0 .453 0 .774-.02.038.02.057.14.02.16l-.152.02c-.359.04-.378.14-.378.84v2.32c0 .7.02.78.378.82l.151.02c.038.02.02.14-.019.16-.302-.02-.51-.02-.774-.02s-.472 0-.774.02c-.038-.02-.057-.12-.019-.16l.151-.02c.359-.04.378-.14.378-.82v-2.32zm6.854 2.34c0 .68.019.78.378.82l.189.02c.037.02.018.14-.02.16-.358-.02-.566-.02-.811-.02-.246 0-.472 0-.85.02-.038-.02-.057-.14 0-.16l.227-.02c.358-.04.377-.14.377-.82v-2.92c0-.2 0-.2-.189-.2h-.34c-.264 0-.604.02-.755.16-.15.14-.207.28-.283.46-.057.04-.132 0-.151-.04a7.3 7.3 0 00.227-.98c.018-.02.094-.02.113 0 .038.2.245.2.529.2h2.492c.34 0 .397-.02.472-.18.038-.02.095 0 .113.02-.075.26-.113.8-.094 1-.019.06-.132.06-.17.02-.019-.16-.057-.4-.151-.48-.151-.12-.378-.16-.718-.16h-.415c-.189 0-.17 0-.17.22v2.88zm7.024 0c0 .7.038.8.378.82l.246.02c.037.04.018.14-.02.16-.377-.02-.585-.02-.83-.02-.265 0-.472 0-.812.02-.038-.02-.057-.12-.019-.16l.189-.02c.359-.04.377-.14.377-.82v-.34c0-.36-.018-.44-.188-.8l-.737-1.5c-.207-.44-.302-.46-.49-.5l-.17-.04c-.038-.04-.038-.14.018-.16.189.02.416.02.718.02.283 0 .51 0 .66-.02.057.02.057.12.02.16l-.076.02c-.208.04-.264.06-.264.12s.17.44.188.5c.227.48.454 1 .7 1.46.188-.34.396-.72.584-1.1.17-.34.397-.78.397-.86 0-.04-.113-.08-.264-.1l-.114-.02c-.037-.04-.037-.14.02-.16.226.02.396.02.585.02.188 0 .358 0 .566-.02a.11.11 0 01.019.16l-.17.04c-.321.06-.51.48-.812 1.04l-.396.72c-.265.5-.284.56-.284 1.06v.3h-.019zm-88.256 3.12c.528-.3 1.17-.74 1.85-1.28v-6.6l-1.85-1.3v9.18zm0-13.76l1.85 1.3V6.18c-.623-.04-1.227-.04-1.85-.06v2.1zm5.551-1.7c-.623-.08-1.227-.16-1.85-.2v4.5l1.85 1.3v-5.6zm-1.85 8.88V19c.623-.66 1.246-1.42 1.85-2.28l-1.85-1.32zm3.72-8.58v6.62c.812-1.78 1.454-3.84 1.831-6.26l-.056-.02c-.605-.12-1.19-.24-1.775-.34m-5.571 2.7v4.58l1.85 1.3v-4.58zm3.701 2.62v4.58c.661-.96 1.284-2.04 1.85-3.26v-.02l-1.85-1.3zm1.87 1.32s0-.02 0 0zm-11.5.94a2.826 2.826 0 001.397-.92 4.538 4.538 0 00-.717-.22c-.189.46-.453.84-.68 1.14m-2.946-.92c.378.44.85.76 1.398.92a4.341 4.341 0 01-.68-1.14c-.264.06-.51.14-.718.22M6.795 8.7c-.208.24-.435.56-.642.98.188.02.415.04.642.06V8.7zm1.907 4.02c.34.08.623.18.85.28.226-.38.358-.82.396-1.3H8.872c-.02.38-.076.7-.17 1.02M6.285 8.44c-.548.16-1.039.48-1.398.92.208.08.435.16.718.22.208-.46.453-.84.68-1.14m2.945.92c-.358-.44-.85-.76-1.397-.92.227.28.491.66.68 1.14.283-.06.529-.14.717-.22m-.34 1.78h1.077c-.038-.48-.189-.9-.397-1.3-.226.1-.51.2-.85.28.076.32.133.66.17 1.02m-1.567 3c.208-.24.435-.56.642-.98-.207-.02-.415-.04-.642-.06v1.04zm-.528-2.44h-1.02c.019.32.075.64.17.9.264-.04.547-.08.85-.08v-.82zm.528.82c.302.02.586.04.85.08.076-.28.151-.58.17-.9h-1.02v.82zm.642-2.82a3.636 3.636 0 00-.642-.98v1.04c.227-.02.453-.04.642-.06m.378 1.44a3.288 3.288 0 00-.17-.9c-.264.04-.548.08-.85.08v.82h1.02zm-2.19 2.02c.188.42.434.74.642.98V13.1c-.227 0-.435.02-.642.06m-.737-3.04c-.34-.08-.623-.18-.85-.28a3.26 3.26 0 00-.396 1.3h1.076c.02-.36.076-.7.17-1.02m1.379.2c-.303-.02-.586-.04-.85-.08a3.42 3.42 0 00-.17.9h1.02v-.82zM5.246 11.7H4.17c.038.48.189.9.396 1.3.227-.1.51-.2.85-.28-.075-.32-.15-.64-.17-1.02"/><path d="M1.411 7.551c1.346 8.42 6.561 12.517 9.16 13.97V6.552c-3.066.038-6.132.359-9.104 1h-.056zm5.234.53c1.888 0 3.42 1.547 3.42 3.454 0 1.907-1.532 3.455-3.42 3.455s-3.42-1.548-3.42-3.455c.018-1.907 1.55-3.455 3.42-3.455"/><path d="M20.533 1.114a45.342 45.342 0 00-9.514-1.02c-3.271 0-6.449.36-9.533 1.02h-.019a.488.488 0 00-.374.49v1.738c0 1.151.075 2.227.187 3.247a46.87 46.87 0 019.739-1.02c3.27 0 6.542.34 9.72 1.02.13-1.02.186-2.096.186-3.247V1.605a.504.504 0 00-.392-.491m-2.15 4.304c-2.392-.453-5.121-.604-7.383-.604-2.243 0-4.99.132-7.383.604-.094.02-.168-.056-.112-.17l1.57-3.492c.018-.038 1.028-.548 1.028-.548 1.29-.264 3.42-.15 4.897.397 1.477-.548 3.607-.68 4.897-.397 0 0 1.01.51 1.028.548l1.57 3.492c.056.114-.018.19-.112.17"/><path d="M15.89 1.12l.71 1.9c-1.664-.22-3.043-.12-5.093.54v.18c1.928-.08 4.363-.18 6.351.24l-1.075-2.44-.893-.42zM5.4 3.02l.71-1.9-.893.4-1.075 2.44c1.968-.42 4.423-.32 6.35-.24v-.18C8.465 2.9 7.065 2.8 5.4 3.02m21.232 1.31c0-1.667-.137-1.848-1.014-1.928l-.37-.02c-.098-.06-.059-.342.039-.382.838.02 1.345.04 1.95.04.584 0 1.091-.02 1.676-.04.097.04.117.321.039.382l-.215.02c-.857.12-.896.321-.896 1.929v5.586c0 1.185-.059 2.23-.332 2.913-.487 1.206-1.52 2.17-2.885 2.17-.176 0-.624-.02-.624-.321 0-.262.214-.704.526-.704.176 0 .351.02.546.1.195.061.41.101.605.101.312 0 .487-.18.584-.402.332-.703.37-2.973.37-3.777V4.33zm2.406 2.81c0-2.18 1.794-3.86 4.25-3.86 2.758 0 4.155 1.835 4.155 3.757 0 2.215-1.832 3.825-4.155 3.825-2.645-.018-4.25-1.749-4.25-3.722m7.215.225c0-1.8-.869-3.755-3.154-3.755-1.247 0-2.852.778-2.852 3.184 0 1.627.869 3.721 3.21 3.721 1.436 0 2.796-.986 2.796-3.15m3.91-.225c-.566 0-.604.018-.604.347v1.54c0 1.142.057 1.298.737 1.367l.34.035c.075.034.056.242-.02.277-.642-.018-1.057-.035-1.51-.035-.51 0-.926.017-1.38.035-.075-.035-.094-.208-.018-.277l.208-.035c.66-.104.698-.225.698-1.367V5.08c0-1.143-.075-1.333-.698-1.385l-.303-.017c-.075-.052-.056-.242.02-.277.585.017 1 .035 1.51.035.473 0 .87-.018 1.38-.035.075.035.094.225.018.277l-.227.017c-.698.07-.717.225-.717 1.385v1.263c0 .346.019.346.604.346h3.419c.567 0 .604-.017.604-.346V5.081c0-1.143-.018-1.316-.736-1.385l-.227-.017c-.075-.052-.057-.242.019-.277.548.017.963.035 1.454.035.473 0 .87-.018 1.417-.035.076.035.095.225.019.277l-.246.017c-.698.07-.717.225-.717 1.385v3.946c0 1.142.019 1.298.717 1.367l.284.035c.075.034.056.242-.02.277-.566-.018-.981-.035-1.454-.035-.49 0-.925.017-1.454.035-.076-.035-.094-.208-.019-.277l.227-.035c.736-.104.736-.225.736-1.367v-1.54c0-.33-.018-.347-.604-.347h-3.457zM54.33 8.82c0 .328 0 1.626.038 1.92-.02.07-.095.122-.227.122-.151-.19-.491-.572-1.53-1.662l-2.777-2.89c-.32-.347-1.133-1.247-1.378-1.472h-.02c-.056.139-.056.381-.056.71v2.389c0 .519.019 1.938.208 2.267.075.121.302.19.604.208l.378.034c.076.087.057.225-.019.277-.529-.017-.963-.035-1.398-.035-.51 0-.83.018-1.246.035-.076-.052-.095-.208-.02-.277l.322-.034c.283-.035.472-.104.529-.225.17-.399.15-1.731.15-2.25V4.769c0-.311-.018-.536-.264-.796-.17-.156-.453-.225-.736-.26l-.208-.017c-.076-.07-.076-.225.019-.277.51.035 1.133.035 1.341.035a5.1 5.1 0 00.548-.035c.245.554 1.643 2.008 2.04 2.406l1.152 1.194c.831.848 1.417 1.454 1.964 1.99h.02c.056-.051.056-.224.056-.467V6.206c0-.52-.019-1.939-.246-2.268-.075-.103-.264-.155-.736-.225l-.208-.017c-.076-.07-.076-.242.019-.277.548.018.963.035 1.417.035.51 0 .83-.017 1.227-.035.095.052.095.208.02.277l-.17.017c-.379.052-.624.139-.662.225-.208.399-.17 1.749-.17 2.25V8.82h.019zm3.154 2.024c-1 0-1.643-.277-1.87-.398-.15-.242-.302-1.021-.32-1.54.056-.07.245-.104.283-.035.17.554.66 1.627 2.059 1.627 1 0 1.492-.606 1.492-1.263 0-.485-.114-1.022-.982-1.54l-1.134-.676c-.604-.363-1.284-.986-1.284-1.886 0-1.039.888-1.887 2.436-1.887.378 0 .794.07 1.115.139.151.052.321.069.415.069.114.26.208.883.208 1.333-.038.069-.245.103-.302.034-.151-.52-.472-1.246-1.624-1.246-1.172 0-1.417.71-1.417 1.212 0 .64.567 1.09 1.02 1.35l.963.553c.756.433 1.492 1.056 1.492 2.112 0 1.229-1 2.042-2.55 2.042m9.634-4.361c-.68 0-.7.017-.7.415v1.835c0 1.367.076 1.54.87 1.627l.415.034c.076.052.057.277-.037.33-.775-.018-1.247-.036-1.795-.036-.604 0-1.095.018-1.643.035-.095-.035-.114-.242-.02-.329l.246-.034c.794-.139.832-.26.832-1.627V4.06c0-1.368-.095-1.593-.832-1.627l-.377-.035c-.095-.052-.057-.294.037-.329.7.018 1.172.035 1.776.035.548 0 1.039-.017 1.643-.035.095.035.114.277.02.33l-.265.034c-.812.086-.85.277-.85 1.627v1.488c0 .398.038.415.699.415h4.06c.68 0 .7-.017.7-.415V4.06c0-1.368-.02-1.558-.87-1.627l-.264-.035c-.094-.052-.056-.294.038-.329.642.035 1.133.035 1.719.035.548 0 1.039-.017 1.662-.035.076.035.114.277.02.33l-.303.034c-.812.086-.85.277-.85 1.627v4.673c0 1.367.038 1.523.85 1.627l.34.034c.094.052.057.277-.038.33-.68-.018-1.152-.036-1.719-.036-.585 0-1.095.018-1.719.035-.094-.035-.113-.242-.037-.329l.264-.034c.869-.139.869-.26.869-1.627V6.898c0-.38-.019-.415-.699-.415h-4.042z"/><path d="M74.144 7.14c0-2.18 1.795-3.86 4.25-3.86 2.758 0 4.156 1.835 4.156 3.757 0 2.215-1.832 3.825-4.156 3.825-2.644-.018-4.25-1.749-4.25-3.722m7.197.225c0-1.8-.869-3.755-3.154-3.755-1.247 0-2.853.778-2.853 3.184 0 1.627.87 3.721 3.212 3.721 1.435 0 2.795-.986 2.795-3.15m3.362 1.662c0 1.142.02 1.298.794 1.367l.32.035c.076.052.057.242-.018.277-.68-.018-1.077-.035-1.549-.035-.51 0-.926.017-1.454.035-.076-.035-.095-.208-.02-.277l.246-.035c.7-.086.718-.225.718-1.367V4.994c0-.934-.019-1.125-.567-1.177l-.434-.052c-.076-.069-.076-.225.019-.277.642-.069 1.379-.086 2.36-.086 1.002 0 1.739.121 2.305.433.548.311.964.882.964 1.644 0 1.004-.68 1.506-1.19 1.748a4.425 4.425 0 01-1.644.329c-.075-.035-.075-.19-.019-.225 1.285-.225 1.757-.883 1.757-1.835 0-1.056-.68-1.748-1.927-1.748-.642 0-.642.035-.642.398v4.88h-.019zm4.987-3.929c0-1.142-.019-1.333-.718-1.385l-.302-.017c-.076-.052-.038-.242.019-.277.585.018.963.035 1.511.035.472 0 .869-.017 1.379-.035.075.035.094.225.019.277l-.227.017c-.699.07-.718.225-.718 1.385v1.264c0 .207.02.415.151.415.114 0 .246-.07.34-.121.17-.139.473-.416.605-.52l1.284-1.176c.227-.19.813-.762.926-.918a.305.305 0 00.075-.173c0-.034-.056-.069-.207-.104l-.321-.069c-.076-.07-.076-.225.018-.277.416.018.888.035 1.323.035.415 0 .83-.017 1.19-.035.075.052.094.208.019.277a3.21 3.21 0 00-1.115.312c-.34.173-1.001.692-1.681 1.263l-1.077.935c-.17.156-.283.26-.283.346 0 .07.076.173.227.346 1.133 1.194 2.059 2.18 2.984 3.08.283.26.51.399.907.45l.226.035c.076.052.057.243-.018.277a19.084 19.084 0 00-1.21-.034c-.49 0-.906.017-1.454.034-.075-.017-.113-.207-.038-.277l.284-.051c.17-.018.283-.052.283-.104 0-.07-.075-.156-.17-.26-.227-.26-.529-.554-.982-1.021l-.963-.987c-.68-.692-.87-.917-1.153-.917-.189 0-.207.139-.207.52v1.419c0 1.142.018 1.298.698 1.367l.322.034c.075.052.056.243-.02.277-.585-.017-1-.034-1.454-.034-.49 0-.888.017-1.379.034-.075-.034-.094-.19-.019-.277l.246-.034c.642-.087.661-.225.661-1.367V5.098h.019zm8.198.017c0-1.16-.02-1.35-.737-1.402l-.302-.017c-.076-.052-.057-.242.019-.277.604.018 1 .035 1.51.035.473 0 .889-.017 1.474-.035.076.035.095.225.02.277l-.303.017c-.699.052-.737.243-.737 1.402V9.01c0 1.16.02 1.315.737 1.384l.302.035c.076.052.057.242-.019.277-.604-.018-1-.035-1.473-.035-.51 0-.869.017-1.455.035-.075-.035-.094-.208-.018-.277l.245-.035c.699-.069.737-.225.737-1.384V5.115zM108.22 8.82c0 .328 0 1.626.038 1.92-.02.07-.095.122-.227.122-.151-.19-.491-.572-1.53-1.662l-2.777-2.89c-.32-.347-1.133-1.247-1.378-1.472h-.02c-.056.139-.056.381-.056.71v2.389c0 .519.019 1.938.208 2.267.075.121.302.19.604.208l.378.034c.076.087.057.225-.019.277-.529-.017-.963-.035-1.398-.035-.51 0-.83.018-1.246.035-.076-.052-.095-.208-.02-.277l.322-.034c.283-.035.472-.104.529-.225.17-.399.15-1.731.15-2.25V4.769c0-.311-.018-.536-.264-.796-.17-.156-.453-.225-.736-.26l-.208-.017c-.076-.07-.076-.225.019-.277.51.035 1.133.035 1.341.035a5.1 5.1 0 00.548-.035c.245.554 1.643 2.008 2.04 2.406l1.152 1.194c.831.848 1.417 1.454 1.964 1.99h.02c.056-.051.056-.224.056-.467V6.206c0-.52-.019-1.939-.246-2.268-.075-.103-.264-.155-.736-.225l-.208-.017c-.076-.07-.076-.242.019-.277.548.018.963.035 1.417.035.51 0 .83-.017 1.227-.035.095.052.095.208.02.277l-.17.017c-.379.052-.624.139-.662.225-.208.399-.17 1.749-.17 2.25V8.82h.019zm3.136 2.024c-1.002 0-1.644-.277-1.87-.398-.152-.242-.303-1.021-.322-1.54.057-.07.246-.104.284-.035.189.554.66 1.627 2.059 1.627 1 0 1.492-.606 1.492-1.263 0-.485-.113-1.022-.982-1.54l-1.134-.676c-.604-.363-1.284-.986-1.284-1.886 0-1.039.888-1.887 2.437-1.887.377 0 .793.07 1.114.139.151.052.321.069.416.069.113.26.207.883.207 1.333-.056.069-.245.103-.302.034-.151-.52-.472-1.246-1.624-1.246-1.171 0-1.417.71-1.417 1.212 0 .64.567 1.09 1.02 1.35l.963.553c.756.433 1.493 1.056 1.493 2.112 0 1.229-.983 2.042-2.55 2.042"/></g></svg>