<svg width="186" height="44" viewBox="0 0 186 44" xmlns="http://www.w3.org/2000/svg" xmlns:xlink="http://www.w3.org/1999/xlink"><defs><path id="a" d="M0 .058h29.787v17.659H0z"/></defs><g fill="none" fill-rule="evenodd"><path d="M14.018 31.751l-3.548 4.256-3.404-12.593 6.952 8.337zm7.663-9.193L14.5 31.175l-7.18-8.617h14.36zm-3.153 13.449l-3.546-4.256 6.95-8.337-3.404 12.593zm-7.458.435l3.43-4.112 3.43 4.112h-6.86zM21.323 40L27 19H2l5.675 21h13.648zM5 44h19v-4H5z" fill="#FFF" fill-rule="nonzero"/><mask id="b" fill="#fff"><use xlink:href="#a"/></mask><path d="M11.557 4.167c0-1.674 1.497-3.037 3.336-3.037 1.842 0 3.336 1.363 3.336 3.037 0 1.18-.74 2.205-1.824 2.708-.391-.3-.924-.483-1.512-.483s-1.118.184-1.51.483c-1.081-.503-1.825-1.528-1.825-2.708zM0 17.717h29.787l-11.27-8.592h-1.86c.26-.282.415-.632.415-1.01 0-.113-.014-.225-.04-.337 1.395-.695 2.343-2.052 2.343-3.611 0-2.266-2.01-4.109-4.482-4.109-2.47 0-4.48 1.843-4.48 4.109 0 1.559.949 2.916 2.345 3.611a1.459 1.459 0 00-.043.337c0 .378.156.728.415 1.01h-1.859L0 17.717z" fill="#FFF" fill-rule="nonzero" mask="url(#b)"/><path stroke="#979797" stroke-linecap="square" d="M44.5 27.5h140"/><path d="M48.788 22a.545.545 0 00.399-.168.545.545 0 00.168-.399v-4.536h5.859a.545.545 0 00.399-.168.545.545 0 00.168-.399v-2.226a.545.545 0 00-.168-.399.545.545 0 00-.399-.168h-5.859V10.66h6.279a.545.545 0 00.399-.168.545.545 0 00.168-.399V7.867a.545.545 0 00-.168-.399.545.545 0 00-.399-.168h-9.597a.545.545 0 00-.399.168.545.545 0 00-.168.399v13.566c0 .154.056.287.168.399a.545.545 0 00.399.168h2.751zm13.734.21c.434 0 .808-.038 1.123-.116.315-.077.592-.175.83-.294s.438-.252.598-.399c.162-.147.298-.297.41-.451v.483c0 .154.056.287.168.399a.545.545 0 00.399.168h2.436a.545.545 0 00.399-.168.545.545 0 00.168-.399v-9.786a.545.545 0 00-.168-.399.545.545 0 00-.399-.168H65.84a.545.545 0 00-.399.168.545.545 0 00-.168.399v5.313c0 .602-.13 1.085-.388 1.449-.26.364-.697.546-1.313.546s-1.057-.182-1.323-.546c-.266-.364-.399-.847-.399-1.449v-5.313a.545.545 0 00-.168-.399.545.545 0 00-.399-.168h-2.646a.545.545 0 00-.399.168.545.545 0 00-.168.399v5.775c0 1.652.403 2.863 1.208 3.633.805.77 1.886 1.155 3.244 1.155zM79.091 22a.545.545 0 00.399-.168.545.545 0 00.168-.399v-2.121a.545.545 0 00-.168-.399.545.545 0 00-.399-.168h-1.68c-.322 0-.553-.088-.693-.263-.14-.175-.21-.423-.21-.745v-3.402h2.373a.545.545 0 00.399-.168.545.545 0 00.168-.399v-2.121a.545.545 0 00-.168-.399.545.545 0 00-.399-.168h-2.373V7.657a.545.545 0 00-.168-.399.545.545 0 00-.399-.168h-2.646a.545.545 0 00-.399.168.545.545 0 00-.168.399v3.423h-1.554a.545.545 0 00-.399.168.545.545 0 00-.168.399v2.121c0 .154.056.287.168.399a.545.545 0 00.399.168h1.554v3.528c0 .644.105 1.222.315 1.732.21.512.504.946.882 1.303s.836.63 1.375.819a5.398 5.398 0 001.796.283h1.995zm6.699.21c.434 0 .808-.038 1.123-.116.316-.077.592-.175.83-.294s.438-.252.599-.399c.16-.147.297-.297.409-.451v.483c0 .154.056.287.168.399a.545.545 0 00.399.168h2.436a.545.545 0 00.399-.168.545.545 0 00.168-.399v-9.786a.545.545 0 00-.168-.399.545.545 0 00-.399-.168h-2.646a.545.545 0 00-.399.168.545.545 0 00-.168.399v5.313c0 .602-.13 1.085-.388 1.449-.26.364-.697.546-1.313.546s-1.057-.182-1.323-.546c-.266-.364-.399-.847-.399-1.449v-5.313a.545.545 0 00-.168-.399.545.545 0 00-.399-.168h-2.646a.545.545 0 00-.399.168.545.545 0 00-.168.399v5.775c0 1.652.402 2.863 1.207 3.633s1.887 1.155 3.245 1.155zM97.97 22a.545.545 0 00.399-.168.545.545 0 00.168-.399v-5.166c0-1.288.644-1.932 1.932-1.932h1.911a.545.545 0 00.399-.168.545.545 0 00.168-.399v-2.121a.545.545 0 00-.168-.399.545.545 0 00-.399-.168h-1.26c-.63 0-1.173.098-1.628.294a3.896 3.896 0 00-1.165.756v-.483a.545.545 0 00-.168-.399.545.545 0 00-.399-.168h-2.436a.545.545 0 00-.399.168.545.545 0 00-.168.399v9.786c0 .154.056.287.168.399a.545.545 0 00.399.168h2.646zm11.592.21c.966 0 1.799-.133 2.499-.399.7-.266 1.27-.578 1.711-.934.441-.357.767-.707.977-1.05.21-.344.315-.599.315-.767 0-.308-.154-.462-.462-.462h-2.73c-.168 0-.287.018-.357.053a2.19 2.19 0 00-.336.241 1.736 1.736 0 01-.62.357c-.245.084-.577.126-.997.126-.21 0-.427-.024-.651-.073a1.695 1.695 0 01-.609-.263 1.5 1.5 0 01-.452-.504c-.118-.21-.178-.476-.178-.798h6.993a.545.545 0 00.399-.168.545.545 0 00.168-.399v-.588a7.05 7.05 0 00-.305-2.027 5.143 5.143 0 00-.987-1.837c-.454-.546-1.043-.99-1.763-1.333-.722-.344-1.593-.515-2.615-.515-.91 0-1.718.143-2.425.43a5.08 5.08 0 00-1.785 1.187 4.937 4.937 0 00-1.093 1.795 6.727 6.727 0 00-.367 2.258c0 .882.122 1.673.367 2.373.245.7.61 1.295 1.093 1.785.482.49 1.077.864 1.784 1.123.708.26 1.516.389 2.426.389zm1.89-6.804h-3.78c.056-.434.238-.826.546-1.176.308-.35.756-.525 1.344-.525.588 0 1.036.175 1.344.525.308.35.49.742.546 1.176zM125.165 22c.896 0 1.652-.13 2.268-.389.616-.259 1.116-.602 1.501-1.029.386-.427.662-.913.83-1.459a5.68 5.68 0 00.252-1.68c0-.7-.108-1.299-.325-1.796-.217-.497-.599-.934-1.145-1.312.084-.07.193-.172.326-.305s.262-.308.388-.525c.126-.217.235-.476.326-.777a3.68 3.68 0 00.136-1.06 5.11 5.11 0 00-.252-1.564 3.693 3.693 0 00-.83-1.407c-.384-.413-.899-.75-1.543-1.008-.644-.26-1.435-.389-2.373-.389h-6.762a.545.545 0 00-.399.168.545.545 0 00-.168.399v13.566c0 .154.056.287.168.399a.545.545 0 00.399.168h7.203zm-.63-9.051h-3.255v-2.394h3.255c.42 0 .739.109.956.325.216.217.325.508.325.872s-.109.654-.326.871c-.216.218-.535.326-.955.326zm.21 5.796h-3.465v-2.562h3.465c.42 0 .756.123 1.008.367.252.245.378.55.378.914s-.126.668-.378.913-.588.368-1.008.368zM135.308 22a.545.545 0 00.399-.168.545.545 0 00.168-.399v-5.166c0-1.288.644-1.932 1.932-1.932h1.911a.545.545 0 00.399-.168.545.545 0 00.168-.399v-2.121a.545.545 0 00-.168-.399.545.545 0 00-.399-.168h-1.26c-.63 0-1.172.098-1.627.294a3.896 3.896 0 00-1.166.756v-.483a.545.545 0 00-.168-.399.545.545 0 00-.399-.168h-2.436a.545.545 0 00-.399.168.545.545 0 00-.168.399v9.786c0 .154.056.287.168.399a.545.545 0 00.399.168h2.646zm9.639-12.075a.545.545 0 00.399-.168.545.545 0 00.168-.399V7.237a.545.545 0 00-.168-.399.545.545 0 00-.399-.168h-2.646a.545.545 0 00-.399.168.545.545 0 00-.168.399v2.121c0 .154.056.287.168.399a.545.545 0 00.399.168h2.646zm0 12.075a.545.545 0 00.399-.168.545.545 0 00.168-.399v-9.786a.545.545 0 00-.168-.399.545.545 0 00-.399-.168h-2.646a.545.545 0 00-.399.168.545.545 0 00-.168.399v9.786c0 .154.056.287.168.399a.545.545 0 00.399.168h2.646zm8.148 4.62c.84 0 1.61-.098 2.31-.294.7-.196 1.302-.494 1.806-.893.504-.398.9-.895 1.186-1.49.288-.596.431-1.285.431-2.069V11.647a.545.545 0 00-.168-.399.545.545 0 00-.399-.168h-2.436a.545.545 0 00-.399.168.545.545 0 00-.168.399v.483a3.833 3.833 0 00-.378-.41 2.626 2.626 0 00-.588-.409 3.83 3.83 0 00-.861-.315 4.984 4.984 0 00-1.197-.126c-.63 0-1.225.098-1.785.294-.56.196-1.05.487-1.47.872-.42.385-.76.875-1.018 1.47-.26.595-.403 1.291-.431 2.089-.014.21-.021.459-.021.746s.007.535.021.745c.028.798.172 1.491.43 2.079a4.412 4.412 0 001.019 1.47c.42.392.91.683 1.47.872.56.189 1.155.283 1.785.283.462 0 .85-.038 1.166-.115.315-.077.58-.175.798-.294.217-.12.399-.252.546-.4.147-.146.283-.297.409-.451V22c0 .49-.203.858-.609 1.103-.406.245-.875.367-1.407.367-.476 0-.815-.07-1.018-.21a1.4 1.4 0 01-.452-.483c-.14-.28-.357-.42-.651-.42h-2.73a.58.58 0 00-.41.168.467.467 0 00-.157.399c.014.308.098.672.252 1.092.154.42.427.823.819 1.208.392.385.935.714 1.628.987.693.273 1.585.409 2.677.409zm.084-8.085c-.616 0-1.075-.161-1.376-.483-.3-.322-.472-.728-.514-1.218a4.054 4.054 0 01-.042-.514c0-.134.014-.305.042-.515.042-.49.217-.893.525-1.208.308-.315.763-.472 1.365-.472.574 0 1.015.154 1.323.462.308.308.49.665.546 1.071.07.448.07.889 0 1.323-.07.406-.256.766-.557 1.081-.3.315-.738.473-1.312.473zM164.477 22a.545.545 0 00.399-.168.545.545 0 00.168-.399V16.12c0-.602.143-1.085.43-1.449.287-.364.746-.546 1.376-.546.63 0 1.092.182 1.386.546.294.364.441.847.441 1.449v5.313c0 .154.056.287.168.399a.545.545 0 00.399.168h2.646a.545.545 0 00.399-.168.545.545 0 00.168-.399v-5.775c0-.826-.112-1.54-.336-2.142-.224-.602-.536-1.099-.935-1.491a3.716 3.716 0 00-1.438-.872 5.75 5.75 0 00-1.848-.283c-.658 0-1.239.137-1.743.41-.504.273-.875.556-1.113.85V7.657a.545.545 0 00-.168-.399.545.545 0 00-.399-.168h-2.646a.545.545 0 00-.399.168.545.545 0 00-.168.399v13.776c0 .154.056.287.168.399a.545.545 0 00.399.168h2.646zm17.913 0a.545.545 0 00.399-.168.545.545 0 00.168-.399v-2.121a.545.545 0 00-.168-.399.545.545 0 00-.399-.168h-1.68c-.322 0-.553-.088-.693-.263-.14-.175-.21-.423-.21-.745v-3.402h2.373a.545.545 0 00.399-.168.545.545 0 00.168-.399v-2.121a.545.545 0 00-.168-.399.545.545 0 00-.399-.168h-2.373V7.657a.545.545 0 00-.168-.399.545.545 0 00-.399-.168h-2.646a.545.545 0 00-.399.168.545.545 0 00-.168.399v3.423h-1.554a.545.545 0 00-.399.168.545.545 0 00-.168.399v2.121c0 .154.056.287.168.399a.545.545 0 00.399.168h1.554v3.528c0 .644.105 1.222.315 1.732.21.512.504.946.882 1.303s.837.63 1.376.819a5.398 5.398 0 001.795.283h1.995zM45.541 39c.084 0 .15-.023.196-.069a.249.249 0 00.068-.184v-3.036h2.324c.536 0 1.002-.09 1.397-.27a2.06 2.06 0 00.92-.8c.218-.352.328-.79.328-1.31 0-.522-.11-.959-.328-1.312a2.06 2.06 0 00-.92-.799c-.395-.18-.86-.27-1.398-.27h-2.794a.249.249 0 00-.184.069c-.046.046-.069.111-.069.196v7.532c0 .077.023.138.069.184a.249.249 0 00.184.069h.207zm2.53-3.979h-2.265V31.64h2.265c.667 0 1.163.146 1.49.437.325.291.488.71.488 1.253 0 .545-.163.963-.489 1.254-.326.291-.822.437-1.489.437zm6.957 4.094c.637 0 1.177-.113 1.622-.34a2.325 2.325 0 001.03-1.046c.24-.471.37-1.067.384-1.788a20.863 20.863 0 000-1.932c-.015-.713-.15-1.305-.408-1.777a2.48 2.48 0 00-1.058-1.052c-.448-.23-.972-.345-1.57-.345-.598 0-1.12.115-1.57.345-.448.23-.799.58-1.052 1.052-.253.472-.39 1.064-.414 1.777a43.648 43.648 0 000 1.932c.023.72.154 1.317.391 1.788.238.472.58.82 1.024 1.047.445.226.985.339 1.621.339zm0-.69c-.651 0-1.192-.2-1.621-.598-.43-.399-.66-1.047-.69-1.944a41.5 41.5 0 01-.011-.908c0-.26.003-.564.011-.909.023-.598.136-1.084.34-1.46a1.9 1.9 0 01.816-.822 2.525 2.525 0 011.155-.259c.437 0 .827.086 1.168.259a1.9 1.9 0 01.816.822c.203.376.313.862.328 1.46.015.345.023.648.023.909 0 .26-.008.563-.023.908-.03.897-.259 1.545-.684 1.944-.426.399-.968.598-1.627.598zM61.48 39a.348.348 0 00.224-.069.431.431 0 00.132-.207l1.53-4.853 1.53 4.853c.03.092.074.161.132.207a.348.348 0 00.224.069h.172a.32.32 0 00.213-.063.384.384 0 00.11-.213l1.575-7.406a.857.857 0 00.023-.138.22.22 0 00-.069-.161.22.22 0 00-.161-.069h-.241c-.146 0-.23.057-.254.172l-1.345 6.555-1.426-4.68a.466.466 0 00-.115-.184c-.054-.054-.134-.08-.242-.08h-.253c-.1 0-.178.026-.235.08a.44.44 0 00-.121.184l-1.426 4.68-1.346-6.555c-.023-.115-.107-.172-.253-.172h-.241a.22.22 0 00-.161.069.22.22 0 00-.063.213c.004.027.01.055.017.086l1.575 7.406c.023.1.06.17.11.213a.32.32 0 00.212.063h.173zm12.328 0c.084 0 .15-.023.195-.069a.249.249 0 00.07-.184v-.172a.265.265 0 00-.07-.196c-.046-.046-.11-.069-.195-.069h-4.106v-3.048h3.761c.084 0 .15-.022.195-.068a.249.249 0 00.07-.185v-.172a.263.263 0 00-.07-.195.263.263 0 00-.195-.07h-3.76V31.64h4.013c.084 0 .15-.023.195-.069a.249.249 0 00.07-.184v-.172a.265.265 0 00-.07-.196c-.046-.046-.11-.069-.195-.069h-4.485a.249.249 0 00-.184.069c-.046.046-.069.111-.069.196v7.532c0 .077.023.138.069.184a.249.249 0 00.184.069h4.577zm2.438 0c.084 0 .15-.023.195-.069a.249.249 0 00.07-.184v-3.151h2.368l1.829 3.094c.046.076.1.147.161.212s.153.098.276.098h.138a.22.22 0 00.161-.069.22.22 0 00.069-.161.286.286 0 00-.035-.126l-1.851-3.151c.544-.13.97-.38 1.277-.748.306-.368.46-.859.46-1.472 0-.782-.24-1.365-.72-1.748-.478-.383-1.12-.575-1.925-.575h-2.68a.249.249 0 00-.184.069c-.046.046-.069.111-.069.196v7.532c0 .077.023.138.069.184a.249.249 0 00.184.069h.207zm2.415-4.094h-2.15V31.64h2.15c.667 0 1.163.136 1.49.408.325.272.488.68.488 1.225 0 .544-.163.953-.489 1.225-.326.272-.822.408-1.489.408zM87.976 39c.084 0 .15-.023.196-.069a.249.249 0 00.069-.184v-.172c0-.085-.023-.15-.07-.196-.045-.046-.11-.069-.195-.069h-4.105v-3.048h3.76c.084 0 .15-.022.196-.068a.249.249 0 00.069-.185v-.172c0-.084-.023-.15-.07-.195-.045-.046-.11-.07-.195-.07h-3.76V31.64h4.013c.084 0 .15-.023.195-.069a.249.249 0 00.07-.184v-.172a.265.265 0 00-.07-.196c-.046-.046-.11-.069-.195-.069h-4.485a.249.249 0 00-.184.069c-.046.046-.069.111-.069.196v7.532c0 .077.023.138.069.184a.249.249 0 00.184.069h4.577zm4.738 0c.79 0 1.41-.113 1.863-.34.452-.225.774-.568.966-1.028.192-.46.295-1.043.31-1.748a41.7 41.7 0 00.012-.915v-.206c-.002-.213-.006-.45-.011-.708-.008-.667-.11-1.232-.305-1.696a2.054 2.054 0 00-.984-1.052c-.46-.238-1.096-.357-1.908-.357h-2.45a.249.249 0 00-.184.069c-.046.046-.069.111-.069.196v7.532c0 .077.023.138.069.184a.249.249 0 00.184.069h2.507zm-.057-.69h-1.979v-6.67H92.6c.92 0 1.568.201 1.943.604.376.402.572 1.025.587 1.869.008.23.011.429.011.597v.512c0 .173-.003.374-.011.604-.008.598-.09 1.08-.247 1.443a1.5 1.5 0 01-.77.794c-.357.165-.842.247-1.456.247zm11.384.69c.522 0 .96-.11 1.317-.328.357-.218.625-.502.805-.85.18-.35.27-.716.27-1.099 0-.483-.118-.893-.356-1.23-.238-.338-.51-.583-.817-.737.154-.076.31-.187.466-.333.157-.146.288-.335.391-.57a2.08 2.08 0 00.155-.844c0-.368-.08-.708-.241-1.018a1.827 1.827 0 00-.753-.753c-.341-.192-.78-.288-1.317-.288h-3.002a.249.249 0 00-.184.069c-.046.046-.069.111-.069.196v7.532c0 .077.023.138.07.184a.249.249 0 00.183.069h3.082zm-.23-4.554h-2.38V31.64h2.38c.568 0 1 .115 1.294.345.295.23.443.571.443 1.023 0 .453-.148.805-.443 1.058-.295.253-.726.38-1.294.38zm.115 3.864h-2.495v-3.174h2.495c.568 0 1.007.148 1.317.443.31.295.466.676.466 1.144 0 .46-.155.84-.466 1.139-.31.298-.75.448-1.317.448zm6.946.69c.085 0 .15-.023.196-.069a.249.249 0 00.069-.184V35.93l2.806-4.6a.255.255 0 00.046-.15.22.22 0 00-.069-.161.22.22 0 00-.161-.069h-.23a.262.262 0 00-.144.04.41.41 0 00-.12.133l-2.496 4.059-2.496-4.06a.304.304 0 00-.114-.132.292.292 0 00-.15-.04h-.23a.22.22 0 00-.161.069.22.22 0 00-.069.161c0 .03.006.058.017.08a.527.527 0 01.029.07l2.806 4.6v2.817c0 .077.023.138.069.184a.249.249 0 00.184.069h.219zm9.994.115c.598 0 1.112-.086 1.541-.259.43-.172.76-.421.995-.747.234-.326.35-.723.35-1.19 0-.422-.091-.765-.275-1.03-.184-.264-.464-.488-.84-.672a10.755 10.755 0 00-1.426-.552 15.4 15.4 0 01-1.334-.49c-.345-.149-.598-.321-.759-.517-.161-.195-.242-.446-.242-.753 0-.475.18-.824.541-1.046.36-.223.824-.334 1.391-.334.568 0 1.03.125 1.386.374.357.249.558.565.604.949.015.092.052.153.11.184a.33.33 0 00.143.046h.23c.084 0 .146-.025.184-.075a.252.252 0 00.057-.155 1.679 1.679 0 00-.184-.685 2.22 2.22 0 00-.505-.655 2.487 2.487 0 00-.84-.489 3.463 3.463 0 00-1.184-.184c-.568 0-1.049.092-1.444.276-.395.184-.695.431-.902.742-.207.31-.311.661-.311 1.052 0 .422.082.767.247 1.035.165.268.424.496.776.684.353.188.802.37 1.346.547.575.184 1.046.35 1.415.5.367.15.642.318.822.506.18.188.27.435.27.742 0 .46-.172.826-.518 1.098-.345.272-.893.408-1.644.408-.498 0-.905-.07-1.219-.213-.314-.142-.552-.318-.713-.529a1.375 1.375 0 01-.287-.638.285.285 0 00-.075-.161.23.23 0 00-.178-.069h-.23a.234.234 0 00-.173.069.22.22 0 00-.069.161c.015.353.138.686.368 1 .23.315.562.572.995.771.433.2.96.299 1.581.299zm5.002-.115c.085 0 .15-.023.196-.069a.249.249 0 00.069-.184v-3.485h4.439v3.485c0 .077.023.138.069.184a.249.249 0 00.184.069h.207c.084 0 .15-.023.196-.069a.249.249 0 00.069-.184v-7.532c0-.085-.023-.15-.07-.196-.045-.046-.11-.069-.195-.069h-.207a.249.249 0 00-.184.069c-.046.046-.069.111-.069.196v3.358h-4.439v-3.358c0-.085-.023-.15-.069-.196a.264.264 0 00-.195-.069h-.207a.249.249 0 00-.184.069.265.265 0 00-.07.196v7.532c0 .077.023.138.07.184a.249.249 0 00.184.069h.206zm10.316.115c.636 0 1.177-.113 1.621-.34a2.325 2.325 0 001.03-1.046c.241-.471.37-1.067.385-1.788.015-.345.023-.667.023-.966 0-.299-.008-.621-.023-.966-.015-.713-.151-1.305-.408-1.777a2.48 2.48 0 00-1.058-1.052c-.449-.23-.972-.345-1.57-.345-.598 0-1.121.115-1.57.345-.448.23-.799.58-1.052 1.052-.253.472-.391 1.064-.414 1.777a43.647 43.647 0 000 1.932c.023.72.153 1.317.391 1.788.238.472.579.82 1.023 1.047.445.226.986.339 1.622.339zm0-.69c-.652 0-1.192-.2-1.621-.598-.43-.399-.66-1.047-.69-1.944a41.5 41.5 0 01-.012-.908c0-.26.004-.564.011-.909.023-.598.137-1.084.34-1.46a1.9 1.9 0 01.816-.822 2.525 2.525 0 011.156-.259c.437 0 .826.086 1.167.259a1.9 1.9 0 01.817.822c.203.376.312.862.328 1.46.015.345.023.648.023.909 0 .26-.008.563-.023.908-.031.897-.26 1.545-.685 1.944-.425.399-.968.598-1.627.598zm5.347.575c.085 0 .15-.023.196-.069a.249.249 0 00.069-.184v-3.151h2.369l1.828 3.094c.046.076.1.147.161.212.062.065.154.098.276.098h.138a.22.22 0 00.161-.069.22.22 0 00.07-.161.286.286 0 00-.035-.126l-1.852-3.151c.545-.13.97-.38 1.277-.748.307-.368.46-.859.46-1.472 0-.782-.24-1.365-.719-1.748s-1.121-.575-1.926-.575h-2.68a.249.249 0 00-.184.069c-.046.046-.069.111-.069.196v7.532c0 .077.023.138.07.184a.249.249 0 00.183.069h.207zm2.415-4.094h-2.15V31.64h2.15c.668 0 1.164.136 1.49.408.326.272.489.68.489 1.225 0 .544-.163.953-.49 1.225-.325.272-.821.408-1.488.408zM153.263 39a.264.264 0 00.195-.069.249.249 0 00.069-.184v-.172c0-.085-.023-.15-.069-.196a.264.264 0 00-.195-.069h-4.106v-3.048h3.76c.085 0 .15-.022.196-.068a.249.249 0 00.069-.185v-.172c0-.084-.023-.15-.069-.195a.265.265 0 00-.196-.07h-3.76V31.64h4.013c.085 0 .15-.023.196-.069a.249.249 0 00.069-.184v-.172c0-.085-.023-.15-.069-.196a.264.264 0 00-.195-.069h-4.485a.249.249 0 00-.184.069.265.265 0 00-.07.196v7.532c0 .077.024.138.07.184a.249.249 0 00.184.069h4.577zm6.67 0a.264.264 0 00.195-.069.249.249 0 00.069-.184v-.172c0-.085-.023-.15-.069-.196a.264.264 0 00-.195-.069h-3.968v-7.107a.249.249 0 00-.069-.184.249.249 0 00-.184-.069h-.218a.249.249 0 00-.184.069.249.249 0 00-.07.184v7.544c0 .077.024.138.07.184a.249.249 0 00.184.069h4.439zm2.081 0a.249.249 0 00.184-.069.249.249 0 00.069-.184v-7.544a.249.249 0 00-.069-.184.249.249 0 00-.184-.069h-.219a.249.249 0 00-.184.069.249.249 0 00-.069.184v7.544c0 .077.023.138.07.184a.249.249 0 00.184.069h.218zm5.175.115c.66 0 1.22-.13 1.685-.391.464-.26.816-.625 1.058-1.092.241-.468.362-1.009.362-1.622v-1.012c0-.084-.023-.15-.069-.195a.264.264 0 00-.195-.07h-2.461a.249.249 0 00-.184.07.263.263 0 00-.07.195v.161c0 .077.024.14.07.19.046.05.107.075.184.075h2v.586c0 .552-.103 1.006-.31 1.363-.207.356-.49.62-.851.793-.36.173-.767.259-1.219.259-.682 0-1.236-.188-1.662-.563-.425-.376-.653-.993-.684-1.852-.023-.69-.023-1.38 0-2.07.03-.866.259-1.485.684-1.857.426-.372.98-.558 1.662-.558.46 0 .841.07 1.144.213a2.042 2.042 0 011.11 1.224c.03.085.061.144.092.179.03.034.08.051.15.051h.253a.262.262 0 00.184-.063.185.185 0 00.057-.166c-.008-.162-.069-.36-.184-.599a2.596 2.596 0 00-.529-.707 2.877 2.877 0 00-.92-.586c-.376-.157-.828-.236-1.357-.236-.652 0-1.204.128-1.656.385a2.54 2.54 0 00-1.03 1.07c-.233.456-.361.987-.384 1.592a49.273 49.273 0 000 2.185c.023.598.15 1.127.385 1.587.234.46.575.819 1.023 1.076.449.257 1.003.385 1.662.385zm5.336-.115c.084 0 .15-.023.196-.069a.249.249 0 00.069-.184v-3.485h4.439v3.485c0 .077.023.138.069.184a.249.249 0 00.184.069h.207a.264.264 0 00.195-.069.249.249 0 00.069-.184v-7.532c0-.085-.023-.15-.069-.196a.264.264 0 00-.195-.069h-.207a.249.249 0 00-.184.069.265.265 0 00-.07.196v3.358h-4.438v-3.358c0-.085-.023-.15-.07-.196-.045-.046-.11-.069-.195-.069h-.207a.249.249 0 00-.184.069c-.046.046-.069.111-.069.196v7.532c0 .077.023.138.069.184a.249.249 0 00.184.069h.207zm9.81 0a.264.264 0 00.195-.069.249.249 0 00.069-.184V31.64h2.266a.264.264 0 00.195-.069.249.249 0 00.069-.184v-.172c0-.085-.023-.15-.069-.196a.264.264 0 00-.195-.069h-5.267a.249.249 0 00-.184.069.265.265 0 00-.07.196v.172c0 .077.024.138.07.184a.249.249 0 00.184.069h2.277v7.107c0 .077.023.138.069.184a.249.249 0 00.184.069h.207z" fill="#FFF" fill-rule="nonzero"/></g></svg>