<svg width="391" height="32" viewBox="0 0 391 32" xmlns="http://www.w3.org/2000/svg"><g fill="none" fill-rule="evenodd"><rect stroke="#DDDBDA" fill="#FFF" x=".5" y=".5" width="390" height="31" rx="4"/><path d="M381.929 27.222l-7.303-7.303a9.538 9.538 0 10-.707.707l7.303 7.303a.5.5 0 00.707-.707zm-14.354-5.147a8.5 8.5 0 118.5-8.5 8.51 8.51 0 01-8.5 8.5z" fill="#EB7302" fill-rule="nonzero"/><path d="M19.992 22.16c.864 0 1.613-.125 2.248-.376.635-.25 1.128-.613 1.48-1.088.352-.475.528-1.048.528-1.72 0-.608-.13-1.107-.392-1.496-.261-.39-.664-.715-1.208-.976-.544-.261-1.243-.51-2.096-.744a16.597 16.597 0 01-1.712-.576c-.437-.181-.757-.392-.96-.632-.203-.24-.304-.541-.304-.904 0-.565.216-.981.648-1.248.432-.267.995-.4 1.688-.4.683 0 1.237.15 1.664.448.427.299.672.667.736 1.104a.42.42 0 00.184.24c.08.043.157.064.232.064h.848c.117 0 .203-.035.256-.104a.35.35 0 00.08-.216 2.34 2.34 0 00-.272-.984 3.223 3.223 0 00-.752-.944 3.717 3.717 0 00-1.24-.704c-.496-.176-1.075-.264-1.736-.264-.832 0-1.539.133-2.12.4-.581.267-1.027.627-1.336 1.08a2.67 2.67 0 00-.464 1.544c0 .608.125 1.11.376 1.504.25.395.632.725 1.144.992.512.267 1.157.512 1.936.736.747.213 1.355.41 1.824.592.47.181.819.387 1.048.616.23.23.344.53.344.904 0 .544-.216.979-.648 1.304-.432.325-1.107.488-2.024.488-.597 0-1.085-.083-1.464-.248-.379-.165-.672-.373-.88-.624a1.763 1.763 0 01-.392-.76.475.475 0 00-.128-.224c-.064-.064-.16-.096-.288-.096h-.816a.339.339 0 00-.248.104.321.321 0 00-.104.232c.021.512.2.995.536 1.448.336.453.819.821 1.448 1.104.63.283 1.408.424 2.336.424zm9.46 0c.555 0 1.045-.072 1.472-.216a3.84 3.84 0 001.088-.552c.299-.224.528-.45.688-.68.16-.23.245-.424.256-.584.01-.107-.019-.19-.088-.248a.395.395 0 00-.264-.088h-.768a.607.607 0 00-.256.04c-.053.027-.128.11-.224.248-.053.075-.16.184-.32.328a2.46 2.46 0 01-.624.392c-.256.117-.576.176-.96.176-.448 0-.832-.117-1.152-.352a2.278 2.278 0 01-.736-.92 3.348 3.348 0 01-.288-1.224v-.144h5.536a.374.374 0 00.264-.096.352.352 0 00.104-.272v-.272c0-.843-.144-1.579-.432-2.208-.288-.63-.707-1.115-1.256-1.456-.55-.341-1.23-.512-2.04-.512-.725 0-1.357.155-1.896.464-.539.31-.963.75-1.272 1.32-.31.57-.485 1.235-.528 1.992-.01.139-.016.317-.016.536 0 .219.005.397.016.536.064 1.173.421 2.099 1.072 2.776.65.677 1.525 1.016 2.624 1.016zm2.208-4.928h-4.384v-.048c0-.48.085-.907.256-1.28.17-.373.419-.67.744-.888.325-.219.717-.328 1.176-.328.459 0 .853.11 1.184.328.33.219.584.515.76.888.176.373.264.8.264 1.28v.048zm5.767 4.928c.512 0 .944-.061 1.296-.184.352-.123.645-.277.88-.464s.421-.376.56-.568v.688c0 .107.032.195.096.264.064.07.155.104.272.104h.736a.358.358 0 00.368-.368v-5.184c0-.363-.056-.72-.168-1.072a2.543 2.543 0 00-.544-.944c-.25-.277-.595-.499-1.032-.664-.437-.165-.976-.248-1.616-.248-.576 0-1.064.077-1.464.232a3.28 3.28 0 00-.984.568 2.431 2.431 0 00-.568.688c-.123.235-.184.432-.184.592 0 .096.03.179.088.248.059.07.147.104.264.104h.72c.16 0 .272-.08.336-.24.117-.299.323-.544.616-.736.293-.192.68-.288 1.16-.288.661 0 1.139.144 1.432.432.293.288.44.688.44 1.2v.464l-2.384.336c-.96.139-1.739.427-2.336.864-.597.437-.896 1.024-.896 1.76 0 .459.133.87.4 1.232.267.363.619.65 1.056.864.437.213.923.32 1.456.32zm.336-1.2c-.288 0-.568-.048-.84-.144a1.59 1.59 0 01-.672-.44 1.076 1.076 0 01-.264-.744c0-.384.192-.701.576-.952.384-.25.955-.43 1.712-.536l1.856-.272v.448c0 .597-.104 1.093-.312 1.488a1.99 1.99 0 01-.856.872 2.58 2.58 0 01-1.2.28zm7.33 1.04a.385.385 0 00.272-.104.345.345 0 00.112-.264v-4.704c0-.576.165-1.032.496-1.368.33-.336.784-.504 1.36-.504h.96a.346.346 0 00.256-.096.346.346 0 00.096-.256v-.656a.374.374 0 00-.096-.264.332.332 0 00-.256-.104h-.64c-.523 0-.97.09-1.344.272a2.031 2.031 0 00-.88.816v-.704a.37.37 0 00-.112-.272.37.37 0 00-.272-.112h-.736a.345.345 0 00-.264.112.385.385 0 00-.104.272v7.568a.358.358 0 00.368.368h.784zm8.126.16c.49 0 .93-.056 1.32-.168a3.53 3.53 0 001-.448 3 3 0 00.696-.64c.186-.24.322-.477.408-.712.085-.235.133-.464.144-.688a.28.28 0 00-.096-.256.404.404 0 00-.272-.096h-.768c-.107 0-.187.024-.24.072a.763.763 0 00-.16.248c-.192.523-.454.89-.784 1.104-.331.213-.742.32-1.232.32-.64 0-1.16-.195-1.56-.584-.4-.39-.616-1.027-.648-1.912a19.6 19.6 0 010-1.12c.032-.875.248-1.51.648-1.904.4-.395.92-.592 1.56-.592.49 0 .9.107 1.232.32.33.213.592.581.784 1.104a.75.75 0 00.16.248c.053.048.133.072.24.072h.768a.404.404 0 00.272-.096.28.28 0 00.096-.256 2.302 2.302 0 00-.232-.88 2.784 2.784 0 00-.648-.864 3.384 3.384 0 00-1.096-.656c-.443-.17-.974-.256-1.592-.256-.758 0-1.411.147-1.96.44-.55.293-.974.715-1.272 1.264-.3.55-.46 1.208-.48 1.976-.011.16-.016.373-.016.64s.005.48.016.64c.02.768.18 1.427.48 1.976.298.55.722.97 1.272 1.264.549.293 1.202.44 1.96.44zm6.658-.16a.352.352 0 00.272-.104.374.374 0 00.096-.264V17.2c0-.747.202-1.33.608-1.752.405-.421.938-.632 1.6-.632.704 0 1.237.21 1.6.632.362.421.544 1.005.544 1.752v4.432a.358.358 0 00.368.368h.8a.352.352 0 00.272-.104.374.374 0 00.096-.264V17.12c0-.715-.126-1.341-.376-1.88a2.897 2.897 0 00-1.104-1.264c-.486-.304-1.075-.456-1.768-.456-.64 0-1.168.112-1.584.336a3.377 3.377 0 00-1.056.88v-3.728a.374.374 0 00-.096-.264.352.352 0 00-.272-.104h-.8a.358.358 0 00-.368.368v10.624a.358.358 0 00.368.368h.8z" fill="#969798" fill-rule="nonzero"/></g></svg>