<svg width="142" height="36" viewBox="0 0 142 36" xmlns="http://www.w3.org/2000/svg"><path d="M87.483 22.552a2.1 2.1 0 00-1.012-1.267l-1.729-.96a2.8 2.8 0 01-1.35-1.689l-2.628-9.384C79.373 4.363 74.794.984 69.582 1c-1.014 0-2.024.129-3.005.382-2.95.738-5.476 2.593-7.014 5.153a10.859 10.859 0 00-1.177 8.477l2.629 9.385a2.686 2.686 0 01-.29 2.112l-.998 1.66a2.015 2.015 0 00-.217 1.584l.517 1.853L88 24.405l-.517-1.853zm-26.449 7.356l-.145-.52a.652.652 0 01.072-.515l.998-1.662a4.074 4.074 0 00.435-3.18l-2.629-9.383a9.333 9.333 0 01.983-7.33c1.348-2.277 3.58-3.931 6.194-4.59a10.6 10.6 0 012.64-.337c4.567-.014 8.58 2.944 9.803 7.226l2.629 9.384a4.17 4.17 0 002.02 2.534l1.73.959c.167.09.29.243.34.422l.14.501-25.21 6.49zm15.53-1.084c0 .012.003.023.003.035-.097 2.374-2.148 4.225-4.588 4.138-1.62.018-3.131-.79-3.987-2.128l8.571-2.045zM126 6.12a5.76 5.76 0 100 11.52 5.76 5.76 0 000-11.52zm0 10.24a4.48 4.48 0 110-8.96 4.48 4.48 0 010 8.96zM126 1a15.985 15.985 0 00-9.598 28.779 15.912 15.912 0 0019.197 0c.426-.32.836-.662 1.227-1.022A15.984 15.984 0 00126 1zm0 30.72a14.646 14.646 0 01-9.462-3.461 9.585 9.585 0 0118.925 0A14.646 14.646 0 01126 31.72zm10.56-4.488a10.863 10.863 0 00-21.12 0c-5.624-5.791-5.533-15.033.203-20.714 5.737-5.681 14.978-5.681 20.715 0 5.736 5.68 5.826 14.923.202 20.714zM34.957 15.195l-2.96-.848a.704.704 0 01-.478-.477c-.264-.87-.61-1.712-1.037-2.514a.701.701 0 01.002-.673l1.486-2.677a1.44 1.44 0 00-.24-1.717L29.71 4.27a1.439 1.439 0 00-1.716-.24l-2.678 1.485a.693.693 0 01-.673.001A13.996 13.996 0 0022.13 4.48a.706.706 0 01-.477-.478l-.848-2.959A1.44 1.44 0 0019.42 0h-2.842a1.44 1.44 0 00-1.384 1.043l-.848 2.96a.706.706 0 01-.477.477c-.87.264-1.711.61-2.513 1.037a.694.694 0 01-.673-.001L8.006 4.03a1.439 1.439 0 00-1.717.24L4.27 6.289a1.44 1.44 0 00-.24 1.717l1.485 2.678a.7.7 0 01.001.674A14.004 14.004 0 004.48 13.87a.704.704 0 01-.478.477l-2.958.848A1.44 1.44 0 000 16.58v2.84a1.44 1.44 0 001.043 1.385l2.96.848c.23.067.41.247.477.477.264.87.611 1.712 1.037 2.515a.7.7 0 01-.002.672L4.03 27.994a1.44 1.44 0 00.24 1.716l2.02 2.019a1.44 1.44 0 001.716.24l2.678-1.484a.694.694 0 01.673-.001c.802.426 1.643.773 2.513 1.036.23.068.41.248.477.478l.848 2.96A1.44 1.44 0 0016.58 36h2.84a1.44 1.44 0 001.385-1.043l.847-2.96a.703.703 0 01.478-.477c.87-.263 1.711-.61 2.513-1.036a.722.722 0 01.338-.085c.118 0 .233.029.335.086l2.678 1.485a1.44 1.44 0 001.717-.24l2.018-2.02a1.44 1.44 0 00.241-1.716l-1.485-2.678a.7.7 0 01-.002-.673c.426-.803.774-1.644 1.037-2.514a.706.706 0 01.478-.477l2.959-.847A1.44 1.44 0 0036 19.42v-2.84a1.44 1.44 0 00-1.043-1.385zm-.397 4.225l-2.959.848c-.7.201-1.25.745-1.458 1.442-.237.78-.548 1.536-.93 2.257-.345.64-.34 1.412.013 2.048l1.485 2.678-2.019 2.018-2.677-1.485a2.136 2.136 0 00-2.048-.014c-.72.383-1.476.695-2.256.93a2.139 2.139 0 00-1.443 1.46l-.848 2.958h-2.84l-.849-2.96a2.14 2.14 0 00-1.443-1.458 12.562 12.562 0 01-2.255-.93 2.17 2.17 0 00-1.014-.254c-.362 0-.718.092-1.034.268l-2.678 1.485-2.018-2.019 1.485-2.677a2.137 2.137 0 00.014-2.045 12.656 12.656 0 01-.93-2.257A2.137 2.137 0 004.4 20.269l-2.96-.849v-2.84l2.958-.848c.7-.201 1.25-.745 1.46-1.442.236-.78.547-1.536.929-2.255.345-.64.34-1.413-.013-2.05L5.288 7.308l2.02-2.018 2.677 1.485a2.137 2.137 0 002.048.014c.72-.382 1.475-.694 2.255-.93a2.139 2.139 0 001.443-1.46l.848-2.958h2.841l.848 2.959c.201.7.744 1.25 1.442 1.458.78.237 1.536.548 2.256.93a2.134 2.134 0 002.049-.013l2.678-1.485 2.019 2.019-1.486 2.676a2.138 2.138 0 00-.014 2.046c.382.721.693 1.477.93 2.258a2.139 2.139 0 001.46 1.444l2.958.848v2.84zM18 10.08A7.92 7.92 0 1025.92 18 7.929 7.929 0 0018 10.08zm0 14.4a6.48 6.48 0 110-12.96 6.48 6.48 0 010 12.96z" fill="#FFF"/></svg>