<?xml version="1.0" standalone="no"?>
<!DOCTYPE svg PUBLIC "-//W3C//DTD SVG 20010904//EN"
 "http://www.w3.org/TR/2001/REC-SVG-20010904/DTD/svg10.dtd">
<svg version="1.0" xmlns="http://www.w3.org/2000/svg"
 width="1200.000000pt" height="1371.000000pt" viewBox="0 0 1200.000000 1371.000000"
 preserveAspectRatio="xMidYMid meet">
<metadata>
Created by potrace 1.16, written by Peter Selinger 2001-2019
</metadata>
<g transform="translate(0.000000,1371.000000) scale(0.100000,-0.100000)"
fill="#000000" stroke="none">
<path d="M5815 13696 c-265 -61 -476 -229 -591 -471 -76 -160 -77 -166 -81
-568 l-5 -357 -26 -6 c-406 -91 -722 -204 -1077 -383 -541 -274 -983 -624
-1361 -1079 -489 -589 -817 -1328 -919 -2073 -30 -225 -36 -310 -45 -719 -5
-228 -14 -482 -20 -565 -88 -1258 -384 -2158 -949 -2885 -87 -112 -237 -282
-401 -455 -151 -160 -208 -233 -255 -325 -59 -118 -77 -191 -82 -342 -7 -167
15 -278 78 -409 113 -234 284 -381 535 -462 l69 -22 5280 -3 c4795 -2 5287 -1
5359 13 322 65 581 321 657 651 29 125 24 330 -11 439 -51 161 -112 251 -310
460 -421 443 -621 720 -830 1146 -291 593 -457 1295 -520 2194 -6 83 -15 337
-20 565 -11 483 -21 601 -76 900 -160 873 -619 1701 -1273 2298 -581 530
-1259 879 -2053 1056 l-27 6 -4 353 c-4 393 -6 411 -78 566 -100 215 -279 375
-507 451 -90 31 -108 33 -247 36 -102 3 -169 -1 -210 -10z m520 -2581 c366
-43 693 -142 1025 -310 893 -454 1507 -1340 1614 -2330 8 -77 17 -284 21 -460
14 -772 74 -1346 201 -1930 179 -826 503 -1575 930 -2152 l54 -73 -4180 0
-4180 0 54 73 c349 472 637 1075 820 1717 202 710 293 1406 311 2365 3 176 13
383 21 460 72 668 372 1292 854 1775 481 483 1097 782 1780 865 151 18 517 18
675 0z"/>
<path d="M4280 1686 c0 -66 21 -242 40 -334 43 -205 131 -411 258 -602 93
-141 290 -343 432 -443 180 -127 415 -227 650 -279 93 -20 132 -23 345 -23
228 1 246 2 359 29 161 38 268 76 411 147 168 83 288 172 441 324 288 288 452
634 494 1044 5 57 10 118 10 137 l0 34 -1720 0 -1720 0 0 -34z"/>
</g>
</svg>
