<?xml version="1.0" standalone="no"?>
<!DOCTYPE svg PUBLIC "-//W3C//DTD SVG 20010904//EN"
 "http://www.w3.org/TR/2001/REC-SVG-20010904/DTD/svg10.dtd">
<svg version="1.0" xmlns="http://www.w3.org/2000/svg"
 width="100pt" height="100pt" viewBox="0 0 100.000000 100.000000"
 preserveAspectRatio="xMidYMid meet">
<metadata>
Created by potrace 1.10, written by Peter Selinger 2001-2011
</metadata>
<g transform="translate(0.000000,119.000000) scale(0.100000,-0.100000)"
fill="#000000" stroke="none">
<path d="M385 803 c-19 -19 -22 -212 -3 -231 29 -29 88 1 88 44 0 13 11 24 30
31 28 10 30 10 40 -23 15 -44 45 -64 97 -64 64 0 104 39 111 108 7 75 22 64
22 -16 0 -74 10 -92 50 -92 41 0 50 17 50 97 0 58 3 73 15 73 11 0 15 -12 15
-47 0 -51 21 -102 48 -118 34 -19 92 -14 121 11 28 23 28 23 46 4 23 -26 61
-26 77 0 12 19 13 19 36 -2 20 -20 26 -21 54 -10 23 8 35 9 44 1 17 -14 107
-14 132 0 11 6 24 6 33 0 23 -14 122 -11 146 6 18 13 22 13 33 0 16 -19 64
-19 80 0 11 14 15 14 32 -2 22 -19 45 -25 53 -13 3 5 28 6 55 3 47 -5 49 -4
56 21 l6 26 30 -25 c23 -19 41 -25 79 -25 28 0 60 5 71 11 14 8 23 8 31 0 15
-15 60 -14 75 1 7 7 12 24 12 39 0 15 5 31 10 34 6 4 10 -8 10 -27 0 -39 15
-58 46 -58 34 0 46 24 47 100 1 50 5 70 14 70 9 0 13 -21 13 -75 0 -73 1 -75
31 -90 29 -15 32 -15 50 1 15 14 19 31 19 88 0 64 2 72 23 81 25 11 34 49 17
70 -9 11 -38 14 -124 13 -61 0 -117 -5 -123 -11 -7 -5 -13 -22 -13 -38 0 -16
-4 -29 -10 -29 -5 0 -10 12 -10 26 0 28 -21 54 -42 54 -7 -1 -24 -7 -38 -14
-21 -12 -29 -12 -52 0 -48 25 -113 11 -149 -32 -13 -15 -14 -15 -19 7 -4 14
-17 28 -33 33 -22 8 -31 6 -48 -11 -20 -20 -21 -20 -57 -2 -48 25 -114 25
-136 0 -16 -18 -18 -18 -54 1 -28 14 -50 18 -87 14 -66 -7 -61 -7 -131 0 -65
7 -104 -5 -104 -32 0 -12 -5 -11 -21 5 -28 25 -103 38 -142 23 -20 -7 -36 -8
-48 -2 -53 29 -79 -1 -79 -91 0 -44 -4 -68 -10 -64 -5 3 -10 35 -10 69 0 47
-4 67 -17 77 -19 17 -277 23 -305 8 -15 -8 -18 -23 -18 -84 0 -43 -4 -75 -10
-75 -6 0 -10 28 -10 65 0 93 -11 101 -133 102 -74 1 -101 -2 -112 -14z m205
-13 c10 -6 17 -33 20 -87 5 -75 6 -78 30 -78 24 0 25 2 30 85 5 77 7 85 25 85
18 0 20 -8 23 -87 2 -77 0 -90 -18 -108 -40 -40 -139 -16 -141 35 0 8 0 47 0
85 0 39 0 72 0 75 1 8 14 6 31 -5z m363 -2 c12 -10 17 -32 19 -88 3 -71 4 -75
27 -78 34 -5 41 12 41 100 0 75 1 78 23 74 21 -3 22 -8 22 -90 0 -80 -2 -89
-24 -107 -36 -29 -94 -25 -120 7 -17 22 -21 41 -21 110 0 46 4 84 8 84 5 0 16
-6 25 -12z m310 -16 c21 -19 22 -60 2 -82 -13 -15 -13 -21 4 -56 11 -21 16
-43 11 -47 -16 -18 -44 -1 -55 33 -6 19 -19 36 -28 38 -14 3 -17 -5 -17 -37 0
-37 -2 -41 -25 -41 l-25 0 0 104 0 105 38 3 c48 4 73 -1 95 -20z m365 5 c15
-12 16 -59 2 -73 -8 -8 -6 -15 5 -24 8 -7 15 -25 15 -41 0 -39 -33 -59 -97
-59 l-53 0 0 104 0 105 38 3 c44 4 72 -1 90 -15z m199 -13 c17 -27 11 -72 -11
-80 -11 -4 -9 -15 9 -49 25 -45 23 -55 -7 -55 -11 0 -25 14 -35 37 -26 54 -50
56 -45 3 4 -38 3 -40 -24 -40 l-29 0 0 102 0 103 40 5 c58 7 84 1 102 -26z
m101 -77 l3 -107 -25 0 c-25 0 -25 1 -28 105 -3 104 0 116 32 112 12 -2 16
-23 18 -110z m181 102 c34 -12 38 -21 17 -38 -10 -8 -21 -8 -40 -1 -53 20 -88
-27 -69 -93 7 -26 14 -33 41 -35 26 -3 32 0 32 16 0 11 -9 22 -20 25 -11 3
-20 12 -20 21 0 12 10 16 39 16 44 0 51 -10 51 -70 0 -42 -13 -50 -86 -50 -60
0 -89 34 -89 105 0 90 60 133 144 104z m110 2 c10 -6 12 -20 8 -45 -6 -35 -5
-36 28 -36 33 0 34 1 37 43 2 34 7 42 23 42 19 0 20 -8 23 -107 l3 -108 -26 0
c-23 0 -25 4 -25 45 0 44 0 45 -34 45 l-34 0 6 -45 c4 -44 4 -45 -24 -45 l-29
0 2 107 c1 60 2 109 2 111 2 5 27 1 40 -7z m-1691 -18 c-2 -13 -15 -19 -46
-21 -34 -3 -42 -7 -42 -23 0 -15 7 -19 35 -19 30 0 35 -3 35 -23 0 -20 -4 -23
-35 -19 l-35 4 0 -46 c0 -42 -2 -46 -25 -46 l-25 0 0 105 0 105 71 0 c62 0 70
-2 67 -17z m370 0 c-2 -11 -14 -19 -28 -21 -25 -3 -25 -4 -22 -87 l3 -85 -25
0 c-26 0 -26 0 -26 85 l0 85 -30 0 c-23 0 -30 4 -30 20 0 18 7 20 81 20 71 0
80 -2 77 -17z m562 -3 c0 -17 -7 -20 -45 -20 -38 0 -45 -3 -45 -20 0 -16 7
-20 35 -20 28 0 35 -4 35 -20 0 -16 -7 -20 -35 -20 -31 0 -35 -3 -35 -25 0
-23 4 -25 46 -25 38 0 45 -3 42 -17 -3 -15 -14 -18 -68 -18 l-65 0 -3 103 -3
102 71 0 c63 0 70 -2 70 -20z m1058 3 c-2 -10 -13 -19 -26 -21 -21 -3 -22 -8
-22 -88 0 -83 0 -84 -25 -84 -25 0 -25 1 -25 85 l0 85 -30 0 c-23 0 -30 4 -30
20 0 18 7 20 81 20 71 0 80 -2 77 -17z m-1049 -65 c0 -31 -1 -31 -10 -10 -5
13 -7 28 -3 33 10 16 14 9 13 -23z m681 16 c0 -8 -5 -12 -10 -9 -6 4 -8 11 -5
16 9 14 15 11 15 -7z m-303 -66 c-3 -8 -6 -5 -6 6 -1 11 2 17 5 13 3 -3 4 -12
1 -19z m-377 -4 c0 -8 -5 -12 -10 -9 -6 4 -8 11 -5 16 9 14 15 11 15 -7z"/>
<path d="M1180 730 c0 -27 3 -31 23 -28 16 2 22 10 22 28 0 18 -6 26 -22 28
-20 3 -23 -1 -23 -28z"/>
<path d="M1544 735 c-2 -20 3 -25 23 -25 20 0 24 4 21 23 -5 33 -43 35 -44 2z"/>
<path d="M1549 677 c0 -1 -2 -14 -3 -29 -1 -24 2 -28 26 -28 23 0 28 4 28 25
0 14 -3 25 -7 26 -5 0 -16 2 -25 4 -10 2 -18 3 -19 2z"/>
<path d="M1734 730 c1 -24 5 -30 24 -30 27 0 39 24 22 45 -22 27 -47 18 -46
-15z"/>
<path d="M592 478 c-7 -7 -12 -19 -12 -27 0 -14 -2 -14 -9 -2 -7 11 -36 16
-108 18 -108 3 -128 0 -137 -24 -13 -34 12 -43 122 -43 86 0 109 3 125 18 11
9 17 11 13 4 -5 -8 -1 -21 10 -33 17 -19 18 -19 41 3 l23 21 24 -22 c18 -17
32 -22 50 -17 15 3 26 11 26 17 0 6 9 5 23 -3 26 -14 55 -16 81 -5 11 6 22 5
29 -2 15 -15 64 -14 71 2 5 9 7 9 12 0 4 -10 10 -10 25 0 13 8 22 9 27 2 4 -5
44 -10 89 -10 89 0 123 15 123 55 0 40 -67 79 -85 50 -3 -6 -15 -5 -30 2 -19
8 -31 8 -50 0 -13 -6 -26 -8 -29 -3 -6 9 -345 6 -368 -4 -11 -4 -18 -3 -18 4
0 15 -53 14 -68 -1z m66 -31 c3 -12 -4 -20 -17 -24 -12 -3 -21 -12 -21 -19 0
-8 -4 -14 -10 -14 -5 0 -10 18 -10 41 0 38 2 40 27 37 17 -2 29 -10 31 -21z
m96 1 c8 -13 8 -23 0 -35 -16 -26 -51 -28 -64 -4 -25 47 36 83 64 39z m47 -11
c0 -19 2 -19 11 6 11 31 28 27 28 -6 1 -19 3 -18 15 8 16 36 20 9 4 -32 l-11
-28 -12 30 -13 30 -7 -29 c-8 -34 -21 -25 -31 23 -5 23 -4 31 4 27 6 -4 11
-17 12 -29z m155 24 c-3 -5 -15 -7 -26 -4 -11 3 -20 0 -20 -6 0 -6 9 -11 20
-11 11 0 20 -5 20 -11 0 -6 -9 -8 -20 -4 -14 4 -20 2 -20 -8 0 -10 8 -13 25
-9 15 2 25 0 25 -7 0 -6 -13 -11 -30 -11 -28 0 -30 2 -30 40 0 38 2 40 31 40
16 0 28 -4 25 -9z m86 -31 c2 -22 0 -40 -4 -40 -5 0 -8 7 -8 15 0 8 -7 15 -15
15 -8 0 -15 -7 -15 -15 0 -8 -4 -15 -10 -15 -5 0 -10 18 -10 40 0 37 2 40 29
40 26 0 29 -3 33 -40z m88 29 c0 -6 -8 -8 -19 -4 -11 3 -22 1 -26 -5 -4 -6 4
-10 20 -10 14 0 24 -4 20 -10 -3 -5 -12 -7 -20 -3 -8 3 -15 0 -15 -6 0 -6 9
-11 20 -11 11 0 20 -4 20 -10 0 -5 -13 -10 -30 -10 -28 0 -30 2 -30 40 0 38 2
40 30 40 17 0 30 -5 30 -11z m84 -11 c14 -23 -3 -52 -33 -56 -19 -3 -21 1 -21
38 0 37 2 41 21 38 12 -2 27 -11 33 -20z m-656 -17 c2 -7 -33 -11 -107 -11
-82 0 -111 3 -111 13 0 16 213 14 218 -2z"/>
<path d="M620 450 c0 -5 7 -10 16 -10 8 0 12 5 9 10 -3 6 -10 10 -16 10 -5 0
-9 -4 -9 -10z"/>
<path d="M707 453 c-13 -12 -7 -41 8 -47 18 -6 30 16 21 39 -6 16 -18 19 -29
8z"/>
<path d="M995 450 c-3 -5 3 -10 15 -10 12 0 18 5 15 10 -3 6 -10 10 -15 10 -5
0 -12 -4 -15 -10z"/>
<path d="M1170 435 c0 -15 6 -25 14 -25 22 0 30 19 16 35 -18 22 -30 18 -30
-10z"/>
<path d="M1280 470 c-16 -29 -9 -81 13 -94 13 -8 24 -7 48 6 27 16 32 16 46 3
18 -18 43 -4 43 24 0 9 5 22 11 28 17 17 3 43 -23 41 -13 -1 -46 2 -75 6 -46
7 -53 6 -63 -14z m65 -40 c0 -31 -3 -35 -27 -38 -27 -3 -28 -1 -28 38 0 39 1
41 28 38 24 -3 27 -7 27 -38z m50 23 c6 -17 7 -17 16 0 6 9 15 17 20 17 6 0 3
-10 -5 -22 -9 -12 -16 -30 -16 -40 0 -10 -5 -18 -11 -18 -6 0 -8 8 -4 19 3 10
-1 24 -10 31 -17 14 -20 30 -6 30 5 0 12 -8 16 -17z"/>
<path d="M1300 450 c0 -5 7 -10 15 -10 8 0 15 5 15 10 0 6 -7 10 -15 10 -8 0
-15 -4 -15 -10z"/>
<path d="M1300 420 c0 -5 9 -10 21 -10 11 0 17 5 14 10 -3 6 -13 10 -21 10 -8
0 -14 -4 -14 -10z"/>
<path d="M1502 478 c-7 -7 -12 -28 -12 -48 0 -20 5 -41 12 -48 15 -15 55 -16
63 -2 5 8 11 8 20 0 7 -6 16 -7 19 -2 6 10 58 9 99 -3 17 -4 33 -3 42 5 8 6
20 8 27 4 15 -10 60 -10 75 -1 7 4 14 3 18 -3 8 -13 52 -13 60 0 5 8 11 8 20
0 13 -11 84 -8 103 4 6 4 20 1 31 -6 14 -9 26 -9 43 -1 13 6 42 9 66 8 23 -1
45 2 48 7 3 5 14 2 24 -7 16 -14 18 -14 31 1 7 9 19 31 25 50 16 47 0 59 -63
48 -43 -7 -75 -7 -138 -2 -11 1 -39 1 -62 0 -38 -2 -43 -5 -43 -25 0 -37 -11
-39 -29 -5 -14 26 -23 31 -59 35 -24 1 -51 -1 -60 -6 -10 -5 -22 -5 -34 2 -13
9 -25 9 -46 1 -19 -7 -35 -8 -46 -2 -10 6 -29 7 -44 3 -37 -10 -123 -12 -129
-2 -7 11 -48 8 -61 -5z m53 -48 c0 -26 -5 -36 -19 -38 -20 -4 -44 14 -33 24 4
4 13 1 21 -5 8 -7 17 -8 20 -3 3 5 -6 14 -19 20 -37 17 -30 46 10 40 16 -2 20
-10 20 -38z m65 10 c10 0 21 8 23 18 3 9 5 -3 4 -28 0 -25 -2 -35 -4 -22 -3
13 -12 22 -23 22 -11 0 -20 -9 -23 -22 -2 -13 -4 -3 -4 22 -1 25 1 37 4 28 2
-10 13 -18 23 -18z m124 8 c8 -13 8 -23 0 -35 -16 -26 -51 -28 -64 -4 -25 47
36 83 64 39z m93 -20 c1 -21 -2 -38 -8 -38 -5 0 -9 7 -9 15 0 8 -7 15 -15 15
-8 0 -15 -7 -15 -15 0 -8 -4 -15 -8 -15 -4 0 -8 18 -7 40 0 39 1 41 30 38 26
-3 29 -7 32 -40z m83 33 c0 -5 -9 -7 -20 -4 -11 3 -20 0 -20 -6 0 -6 9 -11 20
-11 11 0 20 -5 20 -11 0 -6 -9 -8 -20 -4 -11 4 -20 2 -20 -4 0 -6 9 -11 20
-11 11 0 20 -4 20 -10 0 -5 -11 -10 -25 -10 -22 0 -25 4 -25 40 0 36 3 40 25
40 14 0 25 -4 25 -9z m44 -21 c-6 -26 -4 -30 15 -30 11 0 21 -4 21 -10 0 -5
-11 -10 -25 -10 -22 0 -25 4 -25 40 0 22 4 40 10 40 5 0 7 -13 4 -30z m76 -10
c0 -22 -4 -40 -10 -40 -5 0 -10 18 -10 40 0 22 5 40 10 40 6 0 10 -18 10 -40z
m90 14 c16 -40 12 -50 -20 -52 -36 -3 -57 27 -40 58 15 29 48 25 60 -6z m50
11 c0 -8 7 -15 15 -15 8 0 15 7 15 15 0 8 5 15 10 15 6 0 10 -18 10 -40 0 -22
-4 -40 -10 -40 -5 0 -10 9 -10 20 0 11 -7 20 -15 20 -8 0 -15 -9 -15 -20 0
-11 -4 -20 -10 -20 -5 0 -10 18 -10 40 0 22 5 40 10 40 6 0 10 -7 10 -15z
m130 4 c0 -5 -4 -7 -10 -4 -6 4 -10 -8 -10 -29 0 -20 -4 -36 -10 -36 -5 0 -10
16 -10 36 0 21 -4 33 -10 29 -5 -3 -10 -1 -10 4 0 6 14 11 30 11 17 0 30 -5
30 -11z"/>
<path d="M1520 450 c0 -5 7 -10 16 -10 8 0 12 5 9 10 -3 6 -10 10 -16 10 -5 0
-9 -4 -9 -10z"/>
<path d="M1697 453 c-12 -12 -7 -41 7 -46 22 -9 41 19 26 38 -14 16 -23 19
-33 8z"/>
<path d="M1790 450 c0 -5 7 -10 15 -10 8 0 15 5 15 10 0 6 -7 10 -15 10 -8 0
-15 -4 -15 -10z"/>
<path d="M2087 453 c-10 -10 -8 -41 3 -48 17 -10 34 6 19 17 -11 7 -11 11 -1
15 6 2 10 9 6 14 -6 11 -18 12 -27 2z"/>
<path d="M2423 462 c-74 -3 -97 -18 -72 -48 17 -21 222 -20 239 1 31 37 -25
53 -167 47z m157 -32 c0 -6 -43 -10 -110 -10 -67 0 -110 4 -110 10 0 6 43 10
110 10 67 0 110 -4 110 -10z"/>
</g>
</svg>
